<?xml version="1.0" standalone="no"?>
<!DOCTYPE svg PUBLIC "-//W3C//DTD SVG 1.1//EN" "http://www.w3.org/Graphics/SVG/1.1/DTD/svg11.dtd" >
<svg>
<metadata>
Created by FontForge 20090914 at Thu Feb 10 17:39:10 2022
 By www-data
Copyright &#194;&#169; 2016 by Radomir Tinkov. All rights reserved.
</metadata>
<defs>
<font id="Gilroy-SemiBold" horiz-adv-x="0" >
  <font-face 
    font-family="Gilroy-SemiBold"
    font-weight="400"
    font-stretch="normal"
    units-per-em="1000"
    panose-1="0 0 7 0 0 0 0 0 0 0"
    ascent="774"
    descent="-226"
    x-height="500"
    cap-height="700"
    bbox="-15 -214.009 979 800"
    underline-thickness="50"
    underline-position="-50"
    unicode-range="U+0020-U+FB02"
  />
<missing-glyph horiz-adv-x="500" 
d="M410 800v-1000h-317v1000h317zM333 733h-165v-33h65v-37h-66v-33h166v33h-66v37h66v33zM267 604h-100v-104h166v34h-66v70zM233 570v-36h-33v36h33zM333 473h-166v-33h66v-37h-66v-33h100v70h66v33zM333 413h-33v-66h-133v-34h166v100zM333 291h-100v-56h34v23h33v-47
h-100v80h-33v-113h166v113zM333 118h-166v-113h166v113zM300 85v-47h-100v47h100zM333 -18h-166v-33h70l-70 -47v-33h166v33h-102l70 47h32v33z" />
    <glyph glyph-name="fi" unicode="fi" horiz-adv-x="543" 
d="M481 500v-499.999h-108v396h-166v-396h-108v396h-76v104h76v10c0 135.333 75.333 203 226 203c35.333 0 72.333 -4.33301 111 -13v-99c-35.333 5.33301 -72.333 8 -111 8c-40 0 -69.667 -7.33301 -89 -22s-29 -40.334 -29 -77.001v-10h274z" />
    <glyph glyph-name="fl" unicode="fl" horiz-adv-x="543" 
d="M325 713c47.333 0 99.333 -6 156 -18v-695h-108v617c-10.667 0.666992 -26.667 1 -48 1c-78.667 0 -118 -36 -118 -108v-10h93v-104h-93v-396h-108v396h-76v104h76v10c0 135.333 75.333 203 226 203z" />
    <glyph glyph-name="f_f" unicode="ff" 
 />
    <glyph glyph-name="f_f_i" unicode="ffi" 
 />
    <glyph glyph-name="f_f_l" unicode="ffl" 
 />
    <glyph glyph-name=".notdef" horiz-adv-x="500" 
d="M410 800v-1000h-317v1000h317zM333 733h-165v-33h65v-37h-66v-33h166v33h-66v37h66v33zM267 604h-100v-104h166v34h-66v70zM233 570v-36h-33v36h33zM333 473h-166v-33h66v-37h-66v-33h100v70h66v33zM333 413h-33v-66h-133v-34h166v100zM333 291h-100v-56h34v23h33v-47
h-100v80h-33v-113h166v113zM333 118h-166v-113h166v113zM300 85v-47h-100v47h100zM333 -18h-166v-33h70l-70 -47v-33h166v33h-102l70 47h32v33z" />
    <glyph glyph-name="space" unicode=" " horiz-adv-x="250" 
 />
    <glyph glyph-name="quotesingle" unicode="'" horiz-adv-x="195" 
d="M60 480l-15 220h105l-15 -220h-75z" />
    <glyph glyph-name="parenleft" unicode="(" horiz-adv-x="293" 
d="M165 -100c-73.333 146.667 -110 296.667 -110 450s36.667 303.333 110 450h108c-73.333 -146.667 -110 -296.667 -110 -450s36.667 -303.333 110 -450h-108z" />
    <glyph glyph-name="parenright" unicode=")" horiz-adv-x="293" 
d="M128 -100h-108c73.333 146.667 110 296.667 110 450s-36.667 303.333 -110 450h108c73.333 -146.667 110 -296.667 110 -450s-36.667 -303.333 -110 -450z" />
    <glyph glyph-name="asterisk" unicode="*" horiz-adv-x="396" 
d="M341 609v-72l-90 6l53 -72l-62 -38l-44 83l-44 -83l-62 38l54 72l-91 -6v72l91 -6l-54 72l62 38l44 -83l44 83l62 -38l-53 -72z" />
    <glyph glyph-name="plus" unicode="+" horiz-adv-x="550" 
d="M495 401v-102h-169v-169h-102v169h-169v102h169v169h102v-169h169z" />
    <glyph glyph-name="comma" unicode="," horiz-adv-x="265" 
d="M213 120l-70 -260h-90l40 260h120z" />
    <glyph glyph-name="hyphen" unicode="-" horiz-adv-x="510" 
d="M70 252v104h370v-104h-370z" />
    <glyph glyph-name="period" unicode="." horiz-adv-x="255" 
d="M128 -12c-20.667 0 -38.332 7.33301 -52.999 22s-22 32.334 -22 53.001s7.16699 38.334 21.5 53.001s32.166 22 53.499 22c20.667 0 38.334 -7.33301 53.001 -22s22 -32.334 22 -53.001s-7.33301 -38.334 -22 -53.001s-32.334 -22 -53.001 -22z" />
    <glyph glyph-name="zero" unicode="0" horiz-adv-x="630" 
d="M315 -13c-86.667 0 -154.167 33 -202.5 99s-72.5 154 -72.5 264s24.167 198 72.5 264s115.833 99 202.5 99s154.167 -33 202.5 -99s72.5 -154 72.5 -264s-24.167 -198 -72.5 -264s-115.833 -99 -202.5 -99zM315 99c52 0 91.667 21.667 119 65s41 105.333 41 186
s-13.667 142.667 -41 186s-67 65 -119 65c-51.333 0 -90.833 -21.667 -118.5 -65s-41.5 -105.333 -41.5 -186s13.833 -142.667 41.5 -186s67.167 -65 118.5 -65z" />
    <glyph glyph-name="one" unicode="1" horiz-adv-x="372" 
d="M197 700h100v-700h-115v577l-141 -40l-28 98z" />
    <glyph glyph-name="three" unicode="3" horiz-adv-x="540" 
d="M334 414c50.667 -12 91.8311 -35.5 123.498 -70.5s47.5 -78.833 47.5 -131.5c0 -70 -23.667 -125 -71 -165s-105.333 -60 -174 -60c-53.333 0 -101.166 12.333 -143.499 37s-72.833 60.667 -91.5 108l98 57c20.667 -60 66.334 -90 137.001 -90
c40 0 71.667 10.167 95 30.5s35 47.833 35 82.5s-11.667 62 -35 82s-55 30 -95 30h-26l-46 69l151 199h-293v108h430v-98z" />
    <glyph glyph-name="four" unicode="4" horiz-adv-x="580" 
d="M563 233v-107h-80v-126h-116v126h-344v107l241 467h125l-241 -467h219v182h116v-182h80z" />
    <glyph glyph-name="five" unicode="5" horiz-adv-x="545" 
d="M275 436c66.667 0 123 -19.834 169 -59.501s69 -94.5 69 -164.5s-23.667 -125 -71 -165s-105.333 -60 -174 -60c-55.333 0 -104.333 12.833 -147 38.5s-73 62.834 -91 111.501l99 57c18.667 -63.333 65 -95 139 -95c39.333 0 70.833 10.167 94.5 30.5
s35.5 47.833 35.5 82.5s-11.667 62 -35 82s-54.333 30 -93 30h-204l27 376h390v-108h-284l-12 -156h88z" />
    <glyph glyph-name="six" unicode="6" horiz-adv-x="545" 
d="M273 465c72.667 0 132 -22.167 178 -66.5s69 -101.833 69 -172.5s-23 -128.167 -69 -172.5s-105.333 -66.5 -178 -66.5c-73.333 0 -133 22.167 -179 66.5s-69 101.833 -69 172.5c0 53.333 14 100.333 42 141l222 333h131l-160 -235h13zM273 96
c38.667 0 70.334 11.833 95.001 35.5s37 55.167 37 94.5s-12.333 70.833 -37 94.5s-56.334 35.5 -95.001 35.5c-39.333 0 -71.333 -11.833 -96 -35.5s-37 -55.167 -37 -94.5s12.333 -70.833 37 -94.5s56.667 -35.5 96 -35.5z" />
    <glyph glyph-name="eight" unicode="8" horiz-adv-x="561" 
d="M423 364c68.667 -38 102.999 -94.667 102.999 -170c0 -64 -22.333 -114.5 -67 -151.5s-104 -55.5 -178 -55.5s-133.5 18.5 -178.5 55.5s-67.5 87.5 -67.5 151.5c0 36 9 68.833 27 98.5s43.333 53.5 76 71.5c-52.667 34.667 -79 84 -79 148s21.333 113.5 64 148.5
s95.334 52.5 158.001 52.5c62 0 114.5 -17.5 157.5 -52.5s64.5 -84.5 64.5 -148.5s-26.667 -113.333 -80 -148zM280.999 604c-31.333 0 -57 -8.33301 -77 -25s-30 -40.667 -30 -72c0 -30 10.167 -53.667 30.5 -71s45.833 -26 76.5 -26c30 0 55.333 8.66699 76 26
s31 41 31 71c0 31.333 -10.167 55.333 -30.5 72s-45.833 25 -76.5 25zM280.999 96c38.667 0 70 9.5 94 28.5s36 45.833 36 80.5s-12 61.5 -36 80.5s-55.333 28.5 -94 28.5c-39.333 0 -71 -9.5 -95 -28.5s-36 -45.833 -36 -80.5s12 -61.5 36 -80.5s55.667 -28.5 95 -28.5z
" />
    <glyph glyph-name="A" unicode="A" horiz-adv-x="655" 
d="M526 0l-49 141h-298l-49 -141h-125l254 700h138l253 -700h-124zM217 249h222l-111 316z" />
    <glyph glyph-name="C" unicode="C" horiz-adv-x="732" 
d="M401 -13c-105.333 0 -192.665 34.8301 -261.998 104.497s-104 155.834 -104 258.501s34.667 188.834 104 258.501s156.666 104.5 261.999 104.5c63.333 0 121.833 -15 175.5 -45s95.5 -70.667 125.5 -122l-100 -58c-18.667 34.667 -45.834 62.167 -81.501 82.5
s-75.5 30.5 -119.5 30.5c-74.667 0 -135.167 -23.667 -181.5 -71s-69.5 -107.333 -69.5 -180s23.167 -132.667 69.5 -180s106.833 -71 181.5 -71c44 0 84 10.167 120 30.5s63 47.833 81 82.5l100 -57c-29.333 -51.333 -70.833 -92.166 -124.5 -122.499
s-112.5 -45.5 -176.5 -45.5z" />
    <glyph glyph-name="I" unicode="I" horiz-adv-x="255" 
d="M70 700h115v-700h-115v700z" />
    <glyph glyph-name="P" unicode="P" horiz-adv-x="590" 
d="M328 700c66 0 121.167 -22 165.5 -66s66.5 -98.667 66.5 -164c0 -64.667 -22.167 -119.167 -66.5 -163.5s-99.5 -66.5 -165.5 -66.5h-143v-240h-115v700h258zM328 348c34 0 62 11.5 84 34.5s33 52.167 33 87.5s-11 64.5 -33 87.5s-50 34.5 -84 34.5h-143v-244h143z" />
    <glyph glyph-name="T" unicode="T" horiz-adv-x="540" 
d="M525 700v-110h-197v-590h-115v590h-198v110h510z" />
    <glyph glyph-name="U" unicode="U" horiz-adv-x="655" 
d="M328 -13c-78 0 -141.667 22.167 -191 66.5s-74 103.833 -74 178.5v468h115v-461c0 -42.667 12.5 -76.667 37.5 -102s62.5 -38 112.5 -38s87.5 12.667 112.5 38s37.5 59.333 37.5 102v461h115v-468c0 -74.667 -24.667 -134.167 -74 -178.5s-113 -66.5 -191 -66.5z" />
    <glyph glyph-name="W" unicode="W" horiz-adv-x="999" 
d="M218 0l-198 700h121l147 -547l159 547h106l158 -547l147 547h121l-198 -700h-133l-148 511l-149 -511h-133z" />
    <glyph glyph-name="bracketleft" unicode="[" horiz-adv-x="300" 
d="M280 696h-117v-692h117v-104h-225v900h225v-104z" />
    <glyph glyph-name="backslash" unicode="\" horiz-adv-x="525" 
d="M435 -100l-400 900h55l400 -900h-55z" />
    <glyph glyph-name="bracketright" unicode="]" horiz-adv-x="300" 
d="M245 800v-900h-225v104h117v692h-117v104h225z" />
    <glyph glyph-name="asciicircum" unicode="^" horiz-adv-x="540" 
d="M314 700l186 -320h-118l-112 197l-111 -197h-119l186 320h88z" />
    <glyph glyph-name="underscore" unicode="_" horiz-adv-x="520" 
d="M35 -161v104h450v-104h-450z" />
    <glyph glyph-name="grave" unicode="`" horiz-adv-x="250" 
d="M230 565l-80 135h-130l106 -135h104z" />
    <glyph glyph-name="a" unicode="a" horiz-adv-x="630" 
d="M459 500h108v-500h-108v72c-40.667 -56.667 -99 -85 -175 -85c-68.667 0 -127.334 25.5 -176.001 76.5s-73 113.167 -73 186.5c0 74 24.333 136.333 73 187s107.334 76 176.001 76c76 0 134.333 -28 175 -84v71zM301 90c45.333 0 83 15.167 113 45.5s45 68.5 45 114.5
s-15 84.167 -45 114.5s-67.667 45.5 -113 45.5s-83 -15.167 -113 -45.5s-45 -68.5 -45 -114.5s15 -84.167 45 -114.5s67.667 -45.5 113 -45.5z" />
    <glyph glyph-name="b" unicode="b" horiz-adv-x="630" 
d="M346 513c68.667 0 127.334 -25.333 176.001 -76s73 -113 73 -187c0 -73.333 -24.333 -135.5 -73 -186.5s-107.334 -76.5 -176.001 -76.5c-76 0 -134.333 28.333 -175 85v-72h-108v700h108v-271c40.667 56 99 84 175 84zM329 90c45.333 0 83 15.167 113 45.5
s45 68.5 45 114.5s-15 84.167 -45 114.5s-67.667 45.5 -113 45.5s-83 -15.167 -113 -45.5s-45 -68.5 -45 -114.5s15 -84.167 45 -114.5s67.667 -45.5 113 -45.5z" />
    <glyph glyph-name="c" unicode="c" horiz-adv-x="542" 
d="M299 -13c-75.333 0 -138.166 25.332 -188.499 75.999s-75.5 113 -75.5 187c0 74.667 25.167 137.167 75.5 187.5s113.166 75.5 188.499 75.5c48.667 0 93 -11.667 133 -35s70 -54.666 90 -93.999l-93 -54c-11.333 24 -28.5 42.833 -51.5 56.5s-49.5 20.5 -79.5 20.5
c-44 0 -80.833 -15 -110.5 -45s-44.5 -67.333 -44.5 -112s14.833 -82 44.5 -112s66.5 -45 110.5 -45c29.333 0 55.833 7 79.5 21s41.5 32.667 53.5 56l93 -53c-21.333 -40 -52 -71.667 -92 -95s-84.333 -35 -133 -35z" />
    <glyph glyph-name="d" unicode="d" horiz-adv-x="630" 
d="M459 700h108v-700h-108v72c-40.667 -56.667 -99 -85 -175 -85c-68.667 0 -127.334 25.5 -176.001 76.5s-73 113.167 -73 186.5c0 74 24.333 136.333 73 187s107.334 76 176.001 76c76 0 134.333 -28 175 -84v271zM301 90c45.333 0 83 15.167 113 45.5s45 68.5 45 114.5
s-15 84.167 -45 114.5s-67.667 45.5 -113 45.5s-83 -15.167 -113 -45.5s-45 -68.5 -45 -114.5s15 -84.167 45 -114.5s67.667 -45.5 113 -45.5z" />
    <glyph glyph-name="e" unicode="e" horiz-adv-x="582" 
d="M148 204c8 -38 26.334 -67.168 55.001 -87.501s63.667 -30.5 105 -30.5c57.333 0 100.333 20.667 129 62l89 -52c-49.333 -72.667 -122.333 -109 -219 -109c-81.333 0 -147 24.833 -197 74.5s-75 112.5 -75 188.5c0 74.667 24.667 137.167 74 187.5
s112.666 75.5 189.999 75.5c73.333 0 133.5 -25.667 180.5 -77s70.5 -113.666 70.5 -186.999c0 -11.333 -1.33301 -26.333 -4 -45h-398zM147.001 291.999l293.998 -0.000976562c-7.33301 40.667 -24.166 71.334 -50.499 92.001s-57.166 31 -92.499 31
c-40 0 -73.333 -11 -100 -33s-43.667 -52 -51 -90z" />
    <glyph glyph-name="f" unicode="f" horiz-adv-x="325" 
d="M325 609c-78.667 7.33301 -118 -25.668 -118 -99.001v-10h118v-104h-118v-396h-108v396h-76v104h76v10c0 68.667 19.167 120.834 57.5 156.501s94.5 51.167 168.5 46.5v-104z" />
    <glyph glyph-name="g" unicode="g" horiz-adv-x="630" 
d="M461 500l106 0.00292969v-477c0 -76 -25 -134.333 -75 -175s-110.667 -61 -182 -61c-115.333 0 -194.333 40.333 -237 121l93 54c26 -51.333 74.667 -77 146 -77c46.667 0 83.167 12.167 109.5 36.5s39.5 58.166 39.5 101.499v61c-40.667 -58 -98.667 -87 -174 -87
c-70.667 0 -130.334 25.167 -179.001 75.5s-73 111.166 -73 182.499s24.333 132.166 73 182.499s108.334 75.5 179.001 75.5c75.333 0 133.333 -29 174 -87v74zM302 98.0029c45.333 0 83.166 15 113.499 45s45.5 67.333 45.5 112s-15.167 82 -45.5 112
s-68.166 45 -113.499 45s-83.166 -15 -113.499 -45s-45.5 -67.333 -45.5 -112s15.167 -82 45.5 -112s68.166 -45 113.499 -45z" />
    <glyph glyph-name="h" unicode="h" horiz-adv-x="571" 
d="M326 513c57.333 0 103.666 -18.332 138.999 -54.999s53 -87 53 -151v-307h-108v296c0 37.333 -10 66 -30 86s-47.333 30 -82 30c-38 0 -68.667 -11.833 -92 -35.5s-35 -59.834 -35 -108.501v-268h-108v700h108v-264c32.667 51.333 84.334 77 155.001 77z" />
    <glyph glyph-name="i" unicode="i" horiz-adv-x="233" 
d="M117 575c-18.667 0 -34.8301 6.83301 -48.4971 20.5s-20.5 29.834 -20.5 48.501s6.66699 34.834 20 48.501s29.666 20.5 48.999 20.5s35.666 -6.83301 48.999 -20.5s20 -29.834 20 -48.501s-6.83301 -34.834 -20.5 -48.501s-29.834 -20.5 -48.501 -20.5zM63.0039 0v500
h108v-500h-108z" />
    <glyph glyph-name="j" unicode="j" horiz-adv-x="253" 
d="M136 575c-18.667 0 -34.834 6.83301 -48.501 20.5s-20.5 29.834 -20.5 48.501s6.83301 34.834 20.5 48.501s29.834 20.5 48.501 20.5s34.834 -6.83301 48.501 -20.5s20.5 -29.834 20.5 -48.501s-6.83301 -34.834 -20.5 -48.501s-29.834 -20.5 -48.501 -20.5zM82 -20v520
h108v-520c0 -138.667 -68.333 -203 -205 -193v104c33.333 -3.33301 57.833 2 73.5 16s23.5 38.333 23.5 73z" />
    <glyph glyph-name="k" unicode="k" horiz-adv-x="515" 
d="M505 0h-129l-205 231v-231h-108v700h108v-421l194 221h132l-220 -245z" />
    <glyph glyph-name="l" unicode="l" horiz-adv-x="233" 
d="M63 0v730h108v-730h-108z" />
    <glyph glyph-name="m" unicode="m" horiz-adv-x="851" 
d="M609 513c56.667 0 102.334 -18.334 137.001 -55.001s52 -86 52 -148v-310h-108v303c0 34.667 -8.66699 61.5 -26 80.5s-41 28.5 -71 28.5c-33.333 0 -59.833 -11 -79.5 -33s-29.5 -55 -29.5 -99v-280h-108v303c0 34.667 -8.16699 61.5 -24.5 80.5s-39.5 28.5 -69.5 28.5
c-32.667 0 -59.334 -11.167 -80.001 -33.5s-31 -55.166 -31 -98.499v-280h-108v500h108v-60c32 48.667 79.667 73 143 73c64 0 111.333 -26.333 142 -79c33.333 52.667 84.333 79 153 79z" />
    <glyph glyph-name="n" unicode="n" horiz-adv-x="571" 
d="M326 513c57.333 0 103.666 -18.332 138.999 -54.999s53 -87 53 -151v-307h-108v296c0 37.333 -10 66 -30 86s-47.333 30 -82 30c-38 0 -68.667 -11.833 -92 -35.5s-35 -59.834 -35 -108.501v-268h-108v500h108v-64c32.667 51.333 84.334 77 155.001 77z" />
    <glyph glyph-name="o" unicode="o" horiz-adv-x="598" 
d="M299 -13c-73.333 0 -135.666 25.333 -186.999 76s-77 113 -77 187s25.667 136.333 77 187s113.666 76 186.999 76c74 0 136.5 -25.333 187.5 -76s76.5 -113 76.5 -187s-25.5 -136.333 -76.5 -187s-113.5 -76 -187.5 -76zM299 92c44 0 81 15 111 45s45 67.667 45 113
s-15 83 -45 113s-67 45 -111 45s-81 -15 -111 -45s-45 -67.667 -45 -113s15 -83 45 -113s67 -45 111 -45z" />
    <glyph glyph-name="p" unicode="p" horiz-adv-x="630" 
d="M346 513c68.667 0 127.334 -25.5 176.001 -76.5s73 -113.167 73 -186.5c0 -74 -24.333 -136.333 -73 -187s-107.334 -76 -176.001 -76c-76 0 -134.333 28 -175 84v-271h-108v700h108v-72c40.667 56.667 99 85 175 85zM329 90c45.333 0 83 15.167 113 45.5
s45 68.5 45 114.5s-15 84.167 -45 114.5s-67.667 45.5 -113 45.5s-83 -15.167 -113 -45.5s-45 -68.5 -45 -114.5s15 -84.167 45 -114.5s67.667 -45.5 113 -45.5z" />
    <glyph glyph-name="q" unicode="q" horiz-adv-x="630" 
d="M459 500h108v-700h-108v271c-40.667 -56 -99 -84 -175 -84c-68.667 0 -127.334 25.333 -176.001 76s-73 113 -73 187c0 73.333 24.333 135.5 73 186.5s107.334 76.5 176.001 76.5c76 0 134.333 -28.333 175 -85v72zM301 90c45.333 0 83 15.167 113 45.5s45 68.5 45 114.5
s-15 84.167 -45 114.5s-67.667 45.5 -113 45.5s-83 -15.167 -113 -45.5s-45 -68.5 -45 -114.5s15 -84.167 45 -114.5s67.667 -45.5 113 -45.5z" />
    <glyph glyph-name="r" unicode="r" horiz-adv-x="342" 
d="M171 416c27.333 62 78.667 92.998 154 92.998v-117c-41.333 2.66699 -77.333 -7.16602 -108 -29.499s-46 -59.166 -46 -110.499v-252h-108v500h108v-84z" />
    <glyph glyph-name="s" unicode="s" horiz-adv-x="461" 
d="M160 362c0 -16.667 9.16699 -29.835 27.5 -39.502s40.666 -18 66.999 -25s52.833 -15.167 79.5 -24.5s49.167 -25.166 67.5 -47.499s27.5 -50.5 27.5 -84.5c0 -48 -18.5 -85.667 -55.5 -113s-83.5 -41 -139.5 -41c-49.333 0 -91.666 10.333 -126.999 31
s-61 49.334 -77 86.001l93 54c17.333 -48 54.333 -72 111 -72s85 18.667 85 56c0 16 -9.16699 29 -27.5 39s-40.666 18.5 -66.999 25.5s-52.833 15.167 -79.5 24.5s-49.167 24.833 -67.5 46.5s-27.5 49.167 -27.5 82.5c0 46 17.5 83 52.5 111s78.5 42 130.5 42
c41.333 0 78.166 -9.16699 110.499 -27.5s57.166 -43.833 74.499 -76.5l-91 -51c-17.333 38 -48.666 57 -93.999 57c-20.667 0 -38 -4.5 -52 -13.5s-21 -22.167 -21 -39.5z" />
    <glyph glyph-name="t" unicode="t" horiz-adv-x="382" 
d="M342 396l-123.998 0.000976562v-240c0 -20.667 4.66699 -35.5 14 -44.5s23.166 -14 41.499 -15s41.166 -0.833008 68.499 0.5v-97c-82.667 -10 -142 -2.83301 -178 21.5s-54 69.166 -54 134.499v240h-92v104h92v108l108 32v-140h124v-104z" />
    <glyph glyph-name="u" unicode="u" horiz-adv-x="571" 
d="M400 500l108 -0.000976562v-500h-108v64c-32.667 -51.333 -84.334 -77 -155.001 -77c-57.333 0 -103.666 18.333 -138.999 55s-53 87 -53 151v307h108v-296c0 -37.333 10 -66 30 -86s47.333 -30 82 -30c38 0 68.667 11.833 92 35.5s35 59.834 35 108.501v268z" />
    <glyph glyph-name="v" unicode="v" horiz-adv-x="525" 
d="M402 500h118l-195 -500h-125l-195 500h118l140 -380z" />
    <glyph glyph-name="w" unicode="w" horiz-adv-x="770" 
d="M639 500h114l-157 -500h-106l-104 337l-105 -337h-106l-157 500h114l97 -345l105 345h103l104 -345z" />
    <glyph glyph-name="x" unicode="x" horiz-adv-x="520" 
d="M510 0h-125l-124 171l-125 -171h-126l188 257l-178 243h125l115 -158l115 158h126l-178 -244z" />
    <glyph glyph-name="y" unicode="y" horiz-adv-x="520" 
d="M400 500l115 -0.000976562l-192 -516c-48 -129.333 -129.333 -190.666 -244 -183.999v101c34 -2 61.333 5.16699 82 21.5s37.667 41.833 51 76.5l5 10l-212 491h118l149 -363z" />
    <glyph glyph-name="z" unicode="z" horiz-adv-x="473" 
d="M192 102h243v-102h-390v72l234 326h-224v102h370v-72z" />
    <glyph glyph-name="quoteright" unicode="&#x2019;" horiz-adv-x="265" 
d="M213 700l-70 -260h-90l40 260h120z" />
    <glyph glyph-name="quotesinglbase" unicode="&#x201a;" horiz-adv-x="265" 
d="M213 120l-70 -260h-90l40 260h120z" />
    <glyph glyph-name="quotedblleft" unicode="&#x201c;" horiz-adv-x="435" 
d="M52 440l70 260h90l-40 -260h-120zM222 440l70 260h90l-40 -260h-120z" />
    <glyph glyph-name="quotedblright" unicode="&#x201d;" horiz-adv-x="435" 
d="M213 700l-70 -260h-90l40 260h120zM383 700l-70 -260h-90l40 260h120z" />
    <glyph glyph-name=".null" 
 />
    <glyph glyph-name="nonmarkingreturn" horiz-adv-x="333" 
 />
    <glyph glyph-name="exclam" 
 />
    <glyph glyph-name="quotedbl" 
 />
    <glyph glyph-name="numbersign" 
 />
    <glyph glyph-name="dollar" 
 />
    <glyph glyph-name="percent" 
 />
    <glyph glyph-name="ampersand" 
 />
    <glyph glyph-name="slash" 
 />
    <glyph glyph-name="two" 
 />
    <glyph glyph-name="seven" 
 />
    <glyph glyph-name="nine" 
 />
    <glyph glyph-name="colon" 
 />
    <glyph glyph-name="semicolon" 
 />
    <glyph glyph-name="less" 
 />
    <glyph glyph-name="equal" 
 />
    <glyph glyph-name="greater" 
 />
    <glyph glyph-name="question" 
 />
    <glyph glyph-name="at" 
 />
    <glyph glyph-name="B" 
 />
    <glyph glyph-name="D" 
 />
    <glyph glyph-name="E" 
 />
    <glyph glyph-name="F" 
 />
    <glyph glyph-name="G" 
 />
    <glyph glyph-name="H" 
 />
    <glyph glyph-name="J" 
 />
    <glyph glyph-name="K" 
 />
    <glyph glyph-name="L" 
 />
    <glyph glyph-name="M" 
 />
    <glyph glyph-name="N" 
 />
    <glyph glyph-name="O" 
 />
    <glyph glyph-name="Q" 
 />
    <glyph glyph-name="R" 
 />
    <glyph glyph-name="S" 
 />
    <glyph glyph-name="V" 
 />
    <glyph glyph-name="X" 
 />
    <glyph glyph-name="Y" 
 />
    <glyph glyph-name="Z" 
 />
    <glyph glyph-name="braceleft" 
 />
    <glyph glyph-name="bar" 
 />
    <glyph glyph-name="braceright" 
 />
    <glyph glyph-name="asciitilde" 
 />
    <glyph glyph-name="exclamdown" 
 />
    <glyph glyph-name="cent" 
 />
    <glyph glyph-name="sterling" 
 />
    <glyph glyph-name="currency" 
 />
    <glyph glyph-name="yen" 
 />
    <glyph glyph-name="brokenbar" 
 />
    <glyph glyph-name="section" 
 />
    <glyph glyph-name="dieresis" 
 />
    <glyph glyph-name="copyright" 
 />
    <glyph glyph-name="guillemotleft" 
 />
    <glyph glyph-name="logicalnot" 
 />
    <glyph glyph-name="registered" 
 />
    <glyph glyph-name="macron" 
 />
    <glyph glyph-name="degree" 
 />
    <glyph glyph-name="plusminus" 
 />
    <glyph glyph-name="acute" 
 />
    <glyph glyph-name="uni00B5" 
 />
    <glyph glyph-name="paragraph" 
 />
    <glyph glyph-name="periodcentered" 
 />
    <glyph glyph-name="cedilla" 
 />
    <glyph glyph-name="guillemotright" 
 />
    <glyph glyph-name="onequarter" 
 />
    <glyph glyph-name="onehalf" 
 />
    <glyph glyph-name="threequarters" 
 />
    <glyph glyph-name="questiondown" 
 />
    <glyph glyph-name="Agrave" 
 />
    <glyph glyph-name="Aacute" 
 />
    <glyph glyph-name="Acircumflex" 
 />
    <glyph glyph-name="Atilde" 
 />
    <glyph glyph-name="Adieresis" 
 />
    <glyph glyph-name="Aring" 
 />
    <glyph glyph-name="AE" 
 />
    <glyph glyph-name="Ccedilla" 
 />
    <glyph glyph-name="Egrave" 
 />
    <glyph glyph-name="Eacute" 
 />
    <glyph glyph-name="Ecircumflex" 
 />
    <glyph glyph-name="Edieresis" 
 />
    <glyph glyph-name="Igrave" 
 />
    <glyph glyph-name="Iacute" 
 />
    <glyph glyph-name="Icircumflex" 
 />
    <glyph glyph-name="Idieresis" 
 />
    <glyph glyph-name="Eth" 
 />
    <glyph glyph-name="Ntilde" 
 />
    <glyph glyph-name="Ograve" 
 />
    <glyph glyph-name="Oacute" 
 />
    <glyph glyph-name="Ocircumflex" 
 />
    <glyph glyph-name="Otilde" 
 />
    <glyph glyph-name="Odieresis" 
 />
    <glyph glyph-name="multiply" 
 />
    <glyph glyph-name="Oslash" 
 />
    <glyph glyph-name="Ugrave" 
 />
    <glyph glyph-name="Uacute" 
 />
    <glyph glyph-name="Ucircumflex" 
 />
    <glyph glyph-name="Udieresis" 
 />
    <glyph glyph-name="Yacute" 
 />
    <glyph glyph-name="Thorn" 
 />
    <glyph glyph-name="germandbls" 
 />
    <glyph glyph-name="agrave" 
 />
    <glyph glyph-name="aacute" 
 />
    <glyph glyph-name="acircumflex" 
 />
    <glyph glyph-name="atilde" 
 />
    <glyph glyph-name="adieresis" 
 />
    <glyph glyph-name="aring" 
 />
    <glyph glyph-name="ae" 
 />
    <glyph glyph-name="ccedilla" 
 />
    <glyph glyph-name="egrave" 
 />
    <glyph glyph-name="eacute" 
 />
    <glyph glyph-name="ecircumflex" 
 />
    <glyph glyph-name="edieresis" 
 />
    <glyph glyph-name="igrave" 
 />
    <glyph glyph-name="iacute" 
 />
    <glyph glyph-name="icircumflex" 
 />
    <glyph glyph-name="idieresis" 
 />
    <glyph glyph-name="eth" 
 />
    <glyph glyph-name="ntilde" 
 />
    <glyph glyph-name="ograve" 
 />
    <glyph glyph-name="oacute" 
 />
    <glyph glyph-name="ocircumflex" 
 />
    <glyph glyph-name="otilde" 
 />
    <glyph glyph-name="odieresis" 
 />
    <glyph glyph-name="divide" 
 />
    <glyph glyph-name="oslash" 
 />
    <glyph glyph-name="ugrave" 
 />
    <glyph glyph-name="uacute" 
 />
    <glyph glyph-name="ucircumflex" 
 />
    <glyph glyph-name="udieresis" 
 />
    <glyph glyph-name="yacute" 
 />
    <glyph glyph-name="thorn" 
 />
    <glyph glyph-name="ydieresis" 
 />
    <glyph glyph-name="Amacron" 
 />
    <glyph glyph-name="amacron" 
 />
    <glyph glyph-name="Abreve" 
 />
    <glyph glyph-name="abreve" 
 />
    <glyph glyph-name="Aogonek" 
 />
    <glyph glyph-name="aogonek" 
 />
    <glyph glyph-name="Cacute" 
 />
    <glyph glyph-name="cacute" 
 />
    <glyph glyph-name="Cdotaccent" 
 />
    <glyph glyph-name="cdotaccent" 
 />
    <glyph glyph-name="Ccaron" 
 />
    <glyph glyph-name="ccaron" 
 />
    <glyph glyph-name="Dcaron" 
 />
    <glyph glyph-name="dcaron" 
 />
    <glyph glyph-name="Dcroat" 
 />
    <glyph glyph-name="dcroat" 
 />
    <glyph glyph-name="Emacron" 
 />
    <glyph glyph-name="emacron" 
 />
    <glyph glyph-name="Edotaccent" 
 />
    <glyph glyph-name="edotaccent" 
 />
    <glyph glyph-name="Eogonek" 
 />
    <glyph glyph-name="eogonek" 
 />
    <glyph glyph-name="Ecaron" 
 />
    <glyph glyph-name="ecaron" 
 />
    <glyph glyph-name="Gbreve" 
 />
    <glyph glyph-name="gbreve" 
 />
    <glyph glyph-name="Gdotaccent" 
 />
    <glyph glyph-name="gdotaccent" 
 />
    <glyph glyph-name="Gcommaaccent" 
 />
    <glyph glyph-name="gcommaaccent" 
 />
    <glyph glyph-name="Hbar" 
 />
    <glyph glyph-name="hbar" 
 />
    <glyph glyph-name="Imacron" 
 />
    <glyph glyph-name="imacron" 
 />
    <glyph glyph-name="Iogonek" 
 />
    <glyph glyph-name="iogonek" 
 />
    <glyph glyph-name="Idotaccent" 
 />
    <glyph glyph-name="dotlessi" 
 />
    <glyph glyph-name="Kcommaaccent" 
 />
    <glyph glyph-name="kcommaaccent" 
 />
    <glyph glyph-name="Lacute" 
 />
    <glyph glyph-name="lacute" 
 />
    <glyph glyph-name="Lcommaaccent" 
 />
    <glyph glyph-name="lcommaaccent" 
 />
    <glyph glyph-name="Lcaron" 
 />
    <glyph glyph-name="lcaron" 
 />
    <glyph glyph-name="Lslash" 
 />
    <glyph glyph-name="lslash" 
 />
    <glyph glyph-name="Nacute" 
 />
    <glyph glyph-name="nacute" 
 />
    <glyph glyph-name="Ncommaaccent" 
 />
    <glyph glyph-name="ncommaaccent" 
 />
    <glyph glyph-name="Ncaron" 
 />
    <glyph glyph-name="ncaron" 
 />
    <glyph glyph-name="Eng" 
 />
    <glyph glyph-name="eng" 
 />
    <glyph glyph-name="Omacron" 
 />
    <glyph glyph-name="omacron" 
 />
    <glyph glyph-name="Ohungarumlaut" 
 />
    <glyph glyph-name="ohungarumlaut" 
 />
    <glyph glyph-name="OE" 
 />
    <glyph glyph-name="oe" 
 />
    <glyph glyph-name="Racute" 
 />
    <glyph glyph-name="racute" 
 />
    <glyph glyph-name="Rcommaaccent" 
 />
    <glyph glyph-name="rcommaaccent" 
 />
    <glyph glyph-name="Rcaron" 
 />
    <glyph glyph-name="rcaron" 
 />
    <glyph glyph-name="Sacute" 
 />
    <glyph glyph-name="sacute" 
 />
    <glyph glyph-name="Scedilla" 
 />
    <glyph glyph-name="scedilla" 
 />
    <glyph glyph-name="Scaron" 
 />
    <glyph glyph-name="scaron" 
 />
    <glyph glyph-name="uni0162" 
 />
    <glyph glyph-name="uni0163" 
 />
    <glyph glyph-name="Tcaron" 
 />
    <glyph glyph-name="tcaron" 
 />
    <glyph glyph-name="Tbar" 
 />
    <glyph glyph-name="tbar" 
 />
    <glyph glyph-name="Umacron" 
 />
    <glyph glyph-name="umacron" 
 />
    <glyph glyph-name="Uring" 
 />
    <glyph glyph-name="uring" 
 />
    <glyph glyph-name="Uhungarumlaut" 
 />
    <glyph glyph-name="uhungarumlaut" 
 />
    <glyph glyph-name="Uogonek" 
 />
    <glyph glyph-name="uogonek" 
 />
    <glyph glyph-name="Wcircumflex" 
 />
    <glyph glyph-name="wcircumflex" 
 />
    <glyph glyph-name="Ycircumflex" 
 />
    <glyph glyph-name="ycircumflex" 
 />
    <glyph glyph-name="Ydieresis" 
 />
    <glyph glyph-name="Zacute" 
 />
    <glyph glyph-name="zacute" 
 />
    <glyph glyph-name="Zdotaccent" 
 />
    <glyph glyph-name="zdotaccent" 
 />
    <glyph glyph-name="Zcaron" 
 />
    <glyph glyph-name="zcaron" 
 />
    <glyph glyph-name="florin" 
 />
    <glyph glyph-name="Scommaaccent" 
 />
    <glyph glyph-name="scommaaccent" 
 />
    <glyph glyph-name="uni021A" 
 />
    <glyph glyph-name="uni021B" 
 />
    <glyph glyph-name="circumflex" 
 />
    <glyph glyph-name="caron" 
 />
    <glyph glyph-name="breve" 
 />
    <glyph glyph-name="dotaccent" 
 />
    <glyph glyph-name="ring" 
 />
    <glyph glyph-name="ogonek" 
 />
    <glyph glyph-name="tilde" 
 />
    <glyph glyph-name="hungarumlaut" 
 />
    <glyph glyph-name="gravecomb" 
 />
    <glyph glyph-name="acutecomb" 
 />
    <glyph glyph-name="uni0302" 
 />
    <glyph glyph-name="tildecomb" 
 />
    <glyph glyph-name="uni0304" 
 />
    <glyph glyph-name="uni0306" 
 />
    <glyph glyph-name="uni0307" 
 />
    <glyph glyph-name="uni0308" 
 />
    <glyph glyph-name="uni030A" 
 />
    <glyph glyph-name="uni030B" 
 />
    <glyph glyph-name="uni030C" 
 />
    <glyph glyph-name="uni0312" 
 />
    <glyph glyph-name="uni0326" 
 />
    <glyph glyph-name="uni0327" 
 />
    <glyph glyph-name="uni0328" 
 />
    <glyph glyph-name="uni0394" 
 />
    <glyph glyph-name="uni03A9" 
 />
    <glyph glyph-name="pi" 
 />
    <glyph glyph-name="uni0401" 
 />
    <glyph glyph-name="uni0402" 
 />
    <glyph glyph-name="uni0403" 
 />
    <glyph glyph-name="uni0404" 
 />
    <glyph glyph-name="uni0405" 
 />
    <glyph glyph-name="uni0406" 
 />
    <glyph glyph-name="uni0407" 
 />
    <glyph glyph-name="uni0408" 
 />
    <glyph glyph-name="uni0409" 
 />
    <glyph glyph-name="uni040A" 
 />
    <glyph glyph-name="uni040B" 
 />
    <glyph glyph-name="uni040C" 
 />
    <glyph glyph-name="uni040E" 
 />
    <glyph glyph-name="uni040F" 
 />
    <glyph glyph-name="uni0410" 
 />
    <glyph glyph-name="uni0411" 
 />
    <glyph glyph-name="uni0412" 
 />
    <glyph glyph-name="uni0413" 
 />
    <glyph glyph-name="uni0414" 
 />
    <glyph glyph-name="uni0415" 
 />
    <glyph glyph-name="uni0416" 
 />
    <glyph glyph-name="uni0417" 
 />
    <glyph glyph-name="uni0418" 
 />
    <glyph glyph-name="uni0419" 
 />
    <glyph glyph-name="uni041A" 
 />
    <glyph glyph-name="uni041B" 
 />
    <glyph glyph-name="uni041C" 
 />
    <glyph glyph-name="uni041D" 
 />
    <glyph glyph-name="uni041E" 
 />
    <glyph glyph-name="uni041F" 
 />
    <glyph glyph-name="uni0420" 
 />
    <glyph glyph-name="uni0421" 
 />
    <glyph glyph-name="uni0422" 
 />
    <glyph glyph-name="uni0423" 
 />
    <glyph glyph-name="uni0424" 
 />
    <glyph glyph-name="uni0425" 
 />
    <glyph glyph-name="uni0426" 
 />
    <glyph glyph-name="uni0427" 
 />
    <glyph glyph-name="uni0428" 
 />
    <glyph glyph-name="uni0429" 
 />
    <glyph glyph-name="uni042A" 
 />
    <glyph glyph-name="uni042B" 
 />
    <glyph glyph-name="uni042C" 
 />
    <glyph glyph-name="uni042D" 
 />
    <glyph glyph-name="uni042E" 
 />
    <glyph glyph-name="uni042F" 
 />
    <glyph glyph-name="uni0430" 
 />
    <glyph glyph-name="uni0431" 
 />
    <glyph glyph-name="uni0432" 
 />
    <glyph glyph-name="uni0433" 
 />
    <glyph glyph-name="uni0434" 
 />
    <glyph glyph-name="uni0435" 
 />
    <glyph glyph-name="uni0436" 
 />
    <glyph glyph-name="uni0437" 
 />
    <glyph glyph-name="uni0438" 
 />
    <glyph glyph-name="uni0439" 
 />
    <glyph glyph-name="uni043A" 
 />
    <glyph glyph-name="uni043B" 
 />
    <glyph glyph-name="uni043C" 
 />
    <glyph glyph-name="uni043D" 
 />
    <glyph glyph-name="uni043E" 
 />
    <glyph glyph-name="uni043F" 
 />
    <glyph glyph-name="uni0440" 
 />
    <glyph glyph-name="uni0441" 
 />
    <glyph glyph-name="uni0442" 
 />
    <glyph glyph-name="uni0443" 
 />
    <glyph glyph-name="uni0444" 
 />
    <glyph glyph-name="uni0445" 
 />
    <glyph glyph-name="uni0446" 
 />
    <glyph glyph-name="uni0447" 
 />
    <glyph glyph-name="uni0448" 
 />
    <glyph glyph-name="uni0449" 
 />
    <glyph glyph-name="uni044A" 
 />
    <glyph glyph-name="uni044B" 
 />
    <glyph glyph-name="uni044C" 
 />
    <glyph glyph-name="uni044D" 
 />
    <glyph glyph-name="uni044E" 
 />
    <glyph glyph-name="uni044F" 
 />
    <glyph glyph-name="uni0451" 
 />
    <glyph glyph-name="uni0452" 
 />
    <glyph glyph-name="uni0453" 
 />
    <glyph glyph-name="uni0454" 
 />
    <glyph glyph-name="uni0455" 
 />
    <glyph glyph-name="uni0456" 
 />
    <glyph glyph-name="uni0457" 
 />
    <glyph glyph-name="uni0458" 
 />
    <glyph glyph-name="uni0459" 
 />
    <glyph glyph-name="uni045A" 
 />
    <glyph glyph-name="uni045B" 
 />
    <glyph glyph-name="uni045C" 
 />
    <glyph glyph-name="uni045E" 
 />
    <glyph glyph-name="uni045F" 
 />
    <glyph glyph-name="uni0490" 
 />
    <glyph glyph-name="uni0491" 
 />
    <glyph glyph-name="Wgrave" 
 />
    <glyph glyph-name="wgrave" 
 />
    <glyph glyph-name="Wacute" 
 />
    <glyph glyph-name="wacute" 
 />
    <glyph glyph-name="Wdieresis" 
 />
    <glyph glyph-name="wdieresis" 
 />
    <glyph glyph-name="Ygrave" 
 />
    <glyph glyph-name="ygrave" 
 />
    <glyph glyph-name="endash" 
 />
    <glyph glyph-name="emdash" 
 />
    <glyph glyph-name="quoteleft" 
 />
    <glyph glyph-name="quotedblbase" 
 />
    <glyph glyph-name="dagger" 
 />
    <glyph glyph-name="daggerdbl" 
 />
    <glyph glyph-name="bullet" 
 />
    <glyph glyph-name="ellipsis" 
 />
    <glyph glyph-name="perthousand" 
 />
    <glyph glyph-name="guilsinglleft" 
 />
    <glyph glyph-name="guilsinglright" 
 />
    <glyph glyph-name="fraction" 
 />
    <glyph glyph-name="Euro" 
 />
    <glyph glyph-name="uni20BD" 
 />
    <glyph glyph-name="uni2116" 
 />
    <glyph glyph-name="trademark" 
 />
    <glyph glyph-name="estimated" 
 />
    <glyph glyph-name="oneeighth" 
 />
    <glyph glyph-name="threeeighths" 
 />
    <glyph glyph-name="fiveeighths" 
 />
    <glyph glyph-name="seveneighths" 
 />
    <glyph glyph-name="arrowleft" 
 />
    <glyph glyph-name="arrowup" 
 />
    <glyph glyph-name="arrowright" 
 />
    <glyph glyph-name="arrowdown" 
 />
    <glyph glyph-name="arrowboth" 
 />
    <glyph glyph-name="arrowupdn" 
 />
    <glyph glyph-name="uni2196" 
 />
    <glyph glyph-name="uni2197" 
 />
    <glyph glyph-name="uni2198" 
 />
    <glyph glyph-name="uni2199" 
 />
    <glyph glyph-name="partialdiff" 
 />
    <glyph glyph-name="emptyset" 
 />
    <glyph glyph-name="product" 
 />
    <glyph glyph-name="summation" 
 />
    <glyph glyph-name="minus" 
 />
    <glyph glyph-name="radical" 
 />
    <glyph glyph-name="infinity" 
 />
    <glyph glyph-name="integral" 
 />
    <glyph glyph-name="approxequal" 
 />
    <glyph glyph-name="notequal" 
 />
    <glyph glyph-name="lessequal" 
 />
    <glyph glyph-name="greaterequal" 
 />
    <glyph glyph-name="lozenge" 
 />
    <glyph glyph-name="i.loclTRK" 
 />
    <glyph glyph-name="f_f_j" 
 />
    <glyph glyph-name="f_j" 
 />
    <glyph glyph-name="uni0414.loclBGR" 
 />
    <glyph glyph-name="uni041B.loclBGR" 
 />
    <glyph glyph-name="uni0424.loclBGR" 
 />
    <glyph glyph-name="uni0414.ss01" 
 />
    <glyph glyph-name="uni0426.ss01" 
 />
    <glyph glyph-name="uni0429.ss01" 
 />
    <glyph glyph-name="uni0414.loclBGR.ss01" 
 />
    <glyph glyph-name="uni0432.loclBGR" 
 />
    <glyph glyph-name="uni0433.loclBGR" 
 />
    <glyph glyph-name="uni0434.loclBGR" 
 />
    <glyph glyph-name="uni0436.loclBGR" 
 />
    <glyph glyph-name="uni0438.loclBGR" 
 />
    <glyph glyph-name="uni0439.loclBGR" 
 />
    <glyph glyph-name="uni043A.loclBGR" 
 />
    <glyph glyph-name="uni043B.loclBGR" 
 />
    <glyph glyph-name="uni043F.loclBGR" 
 />
    <glyph glyph-name="uni0442.loclBGR" 
 />
    <glyph glyph-name="uni0446.loclBGR" 
 />
    <glyph glyph-name="uni0448.loclBGR" 
 />
    <glyph glyph-name="uni0449.loclBGR" 
 />
    <glyph glyph-name="uni044C.loclBGR" 
 />
    <glyph glyph-name="uni044A.loclBGR" 
 />
    <glyph glyph-name="uni044E.loclBGR" 
 />
    <glyph glyph-name="zero.sinf" 
 />
    <glyph glyph-name="one.sinf" 
 />
    <glyph glyph-name="two.sinf" 
 />
    <glyph glyph-name="three.sinf" 
 />
    <glyph glyph-name="four.sinf" 
 />
    <glyph glyph-name="five.sinf" 
 />
    <glyph glyph-name="six.sinf" 
 />
    <glyph glyph-name="seven.sinf" 
 />
    <glyph glyph-name="eight.sinf" 
 />
    <glyph glyph-name="nine.sinf" 
 />
    <glyph glyph-name="zero.tf" 
 />
    <glyph glyph-name="one.tf" 
 />
    <glyph glyph-name="two.tf" 
 />
    <glyph glyph-name="three.tf" 
 />
    <glyph glyph-name="four.tf" 
 />
    <glyph glyph-name="five.tf" 
 />
    <glyph glyph-name="six.tf" 
 />
    <glyph glyph-name="seven.tf" 
 />
    <glyph glyph-name="eight.tf" 
 />
    <glyph glyph-name="nine.tf" 
 />
    <glyph glyph-name="zero.dnom" 
 />
    <glyph glyph-name="one.dnom" 
 />
    <glyph glyph-name="two.dnom" 
 />
    <glyph glyph-name="three.dnom" 
 />
    <glyph glyph-name="four.dnom" 
 />
    <glyph glyph-name="five.dnom" 
 />
    <glyph glyph-name="six.dnom" 
 />
    <glyph glyph-name="seven.dnom" 
 />
    <glyph glyph-name="eight.dnom" 
 />
    <glyph glyph-name="nine.dnom" 
 />
    <glyph glyph-name="zero.numr" 
 />
    <glyph glyph-name="one.numr" 
 />
    <glyph glyph-name="two.numr" 
 />
    <glyph glyph-name="three.numr" 
 />
    <glyph glyph-name="four.numr" 
 />
    <glyph glyph-name="five.numr" 
 />
    <glyph glyph-name="six.numr" 
 />
    <glyph glyph-name="seven.numr" 
 />
    <glyph glyph-name="eight.numr" 
 />
    <glyph glyph-name="nine.numr" 
 />
    <glyph glyph-name="zero.sups" 
 />
    <glyph glyph-name="one.sups" 
 />
    <glyph glyph-name="two.sups" 
 />
    <glyph glyph-name="three.sups" 
 />
    <glyph glyph-name="four.sups" 
 />
    <glyph glyph-name="five.sups" 
 />
    <glyph glyph-name="six.sups" 
 />
    <glyph glyph-name="seven.sups" 
 />
    <glyph glyph-name="eight.sups" 
 />
    <glyph glyph-name="nine.sups" 
 />
    <glyph glyph-name="cent.tf" 
 />
    <glyph glyph-name="dollar.tf" 
 />
    <glyph glyph-name="Euro.tf" 
 />
    <glyph glyph-name="florin.tf" 
 />
    <glyph glyph-name="uni20BD.tf" 
 />
    <glyph glyph-name="sterling.tf" 
 />
    <glyph glyph-name="yen.tf" 
 />
    <glyph glyph-name="brevecy" 
 />
    </font>
</defs>
</svg>
